<?xml version="1.0" encoding="UTF-8"?>
<svg width="24px" height="24px" viewBox="0 0 24 24" version="1.1" xmlns="http://www.w3.org/2000/svg">
    <title>Leaf Pattern</title>
    <g stroke="none" stroke-width="1" fill="none" fill-rule="evenodd" opacity="0.15">
        <path d="M5,2 C4.33333333,3.66666667 3.16666667,5 1.5,6 C2.16666667,6.33333333 2.83333333,6.5 3.5,6.5 C4.16666667,6.5 4.83333333,6.33333333 5.5,6 C5.16666667,5.33333333 5,4.66666667 5,4 C5.66666667,4.33333333 6.16666667,4.83333333 6.5,5.5 C6.83333333,6.16666667 7.33333333,6.66666667 8,7 C7,5.66666667 6.33333333,4.16666667 6,2.5 C5.66666667,2.33333333 5.33333333,2.16666667 5,2 Z" fill="#2d6a4f" transform="translate(4.750000, 4.500000) scale(-1, 1) translate(-4.750000, -4.500000)"></path>
        <path d="M22,6 C21.3333333,7.66666667 20.1666667,9 18.5,10 C19.1666667,10.3333333 19.8333333,10.5 20.5,10.5 C21.1666667,10.5 21.8333333,10.3333333 22.5,10 C22.1666667,9.33333333 22,8.66666667 22,8 C22.6666667,8.33333333 23.1666667,8.83333333 23.5,9.5 C23.8333333,10.1666667 24.3333333,10.6666667 25,11 C24,9.66666667 23.3333333,8.16666667 23,6.5 C22.6666667,6.33333333 22.3333333,6.16666667 22,6 Z" fill="#2d6a4f"></path>
        <path d="M5,17 C4.33333333,18.6666667 3.16666667,20 1.5,21 C2.16666667,21.3333333 2.83333333,21.5 3.5,21.5 C4.16666667,21.5 4.83333333,21.3333333 5.5,21 C5.16666667,20.3333333 5,19.6666667 5,19 C5.66666667,19.3333333 6.16666667,19.8333333 6.5,20.5 C6.83333333,21.1666667 7.33333333,21.6666667 8,22 C7,20.6666667 6.33333333,19.1666667 6,17.5 C5.66666667,17.3333333 5.33333333,17.1666667 5,17 Z" fill="#2d6a4f"></path>
        <path d="M19,17 C18.3333333,18.6666667 17.1666667,20 15.5,21 C16.1666667,21.3333333 16.8333333,21.5 17.5,21.5 C18.1666667,21.5 18.8333333,21.3333333 19.5,21 C19.1666667,20.3333333 19,19.6666667 19,19 C19.6666667,19.3333333 20.1666667,19.8333333 20.5,20.5 C20.8333333,21.1666667 21.3333333,21.6666667 22,22 C21,20.6666667 20.3333333,19.1666667 20,17.5 C19.6666667,17.3333333 19.3333333,17.1666667 19,17 Z" fill="#2d6a4f" transform="translate(18.750000, 19.500000) scale(-1, 1) translate(-18.750000, -19.500000)"></path>
    </g>
</svg>